<svg xmlns="http://www.w3.org/2000/svg" width="19" height="19" viewBox="0 0 19 19">
  <g id="Grupo_1921" data-name="Grupo 1921" transform="translate(-1191.5 -947.647)">
    <rect id="Rectángulo_2950" data-name="Rectángulo 2950" width="19" height="19" rx="9.5" transform="translate(1191.5 947.647)" fill="#ff342e"/>
    <path id="Trazado_478" data-name="Trazado 478" d="M533.2,373.69a1.8,1.8,0,0,0-.415-1.024,1.7,1.7,0,0,0-.384-.341,2,2,0,0,0-.288-.136,1.625,1.625,0,0,0-.462-.059h-2.2l.757,1.9a.616.616,0,0,1,.045.143.121.121,0,0,1-.121.121.219.219,0,0,1-.09-.038l-2.781-2.376a.357.357,0,0,1,.051-.505l.256-.231S530.188,369,530.191,369a.127.127,0,0,1,.065-.017.149.149,0,0,1,.148.148.032.032,0,0,1,0,.012.094.094,0,0,1-.005.026l-.916,1.869,1.423.005a2.175,2.175,0,0,0,.393-.031,3.168,3.168,0,0,0,.835-.566,2.169,2.169,0,0,0,.724-1.346,1.667,1.667,0,0,0-.387-1.326,1.634,1.634,0,0,0-1.246-.538h-4.054a1.734,1.734,0,0,0-1.386,1.314l-.848,6.638a.947.947,0,0,0,.221.753.93.93,0,0,0,.707.3H530.8a2.473,2.473,0,0,0,2.39-2.131c0-.023.006-.044.008-.067A2.262,2.262,0,0,0,533.2,373.69Z" transform="translate(671.931 585.402)" fill="#fff"/>
  </g>
</svg>
