<svg xmlns="http://www.w3.org/2000/svg" width="26" height="26" viewBox="0 0 26 26">
  <g id="Grupo_1919" data-name="Grupo 1919" transform="translate(-974.5 -410.852)">
    <circle id="Elipse_117" data-name="Elipse 117" cx="13" cy="13" r="13" transform="translate(974.5 410.852)" fill="#ff342e"/>
    <path id="Trazado_541" data-name="Trazado 541" d="M534.823,374.955a2.153,2.153,0,0,0-.5-1.225,2.039,2.039,0,0,0-.46-.408,2.4,2.4,0,0,0-.345-.163,1.946,1.946,0,0,0-.552-.071h-2.627l.9,2.277a.738.738,0,0,1,.053.171.145.145,0,0,1-.145.145.263.263,0,0,1-.108-.046l-3.326-2.842a.427.427,0,0,1,.061-.6l.307-.276s3.128-2.563,3.132-2.564a.151.151,0,0,1,.078-.02.178.178,0,0,1,.177.177.04.04,0,0,1,0,.015.116.116,0,0,1-.006.031l-1.095,2.235,1.7.006a2.611,2.611,0,0,0,.47-.036,3.789,3.789,0,0,0,1-.678,2.593,2.593,0,0,0,.866-1.61,1.994,1.994,0,0,0-.462-1.586,1.954,1.954,0,0,0-1.49-.644H527.61a2.074,2.074,0,0,0-1.658,1.571l-1.014,7.939a1.133,1.133,0,0,0,.265.9,1.113,1.113,0,0,0,.846.365h5.9a2.957,2.957,0,0,0,2.859-2.548c0-.027.007-.053.01-.08A2.7,2.7,0,0,0,534.823,374.955Z" transform="translate(457.621 51.223)" fill="#fff"/>
  </g>
</svg>
