<svg xmlns="http://www.w3.org/2000/svg" width="26" height="26" viewBox="0 0 26 26">
  <g id="Grupo_1920" data-name="Grupo 1920" transform="translate(-974.5 -476.584)">
    <circle id="Elipse_118" data-name="Elipse 118" cx="13" cy="13" r="13" transform="translate(974.5 476.584)" fill="#0089d0"/>
    <g id="Icon_feather-truck" data-name="Icon feather-truck" transform="translate(981.387 484.582)">
      <path id="Trazado_434" data-name="Trazado 434" d="M1.5,4.5h9.129v7.911H1.5Z" transform="translate(-1.5 -4.5)" fill="none" stroke="#fff" stroke-linecap="round" stroke-linejoin="round" stroke-width="1"/>
      <path id="Trazado_435" data-name="Trazado 435" d="M24,12h2.434l1.826,1.826v3.043H24Z" transform="translate(-14.871 -8.957)" fill="none" stroke="#fff" stroke-linecap="round" stroke-linejoin="round" stroke-width="1"/>
      <path id="Trazado_436" data-name="Trazado 436" d="M7.543,25.521A1.521,1.521,0,1,1,6.021,24a1.521,1.521,0,0,1,1.521,1.521Z" transform="translate(-3.283 -16.089)" fill="none" stroke="#fff" stroke-linecap="round" stroke-linejoin="round" stroke-width="1"/>
      <path id="Trazado_437" data-name="Trazado 437" d="M27.043,25.521A1.521,1.521,0,1,1,25.521,24,1.521,1.521,0,0,1,27.043,25.521Z" transform="translate(-14.871 -16.089)" fill="none" stroke="#fff" stroke-linecap="round" stroke-linejoin="round" stroke-width="1"/>
    </g>
  </g>
</svg>
