<svg xmlns="http://www.w3.org/2000/svg" width="32.926" height="32.926" viewBox="0 0 32.926 32.926">
  <g id="Grupo_1121" data-name="Grupo 1121" transform="translate(0)" opacity="0.9">
    <rect id="Rectángulo_2792" data-name="Rectángulo 2792" width="32.926" height="32.926" transform="translate(0)" fill="none"/>
    <g id="MDI_license" data-name="MDI / license" transform="translate(2.217 2.217)">
      <g id="Boundary" fill="#0089d0" stroke="rgba(0,0,0,0)" stroke-width="1" opacity="0">
        <rect width="28.491" height="28.491" stroke="none"/>
        <rect x="0.5" y="0.5" width="27.491" height="27.491" fill="none"/>
      </g>
      <path id="Path_license" data-name="Path / license" d="M9.936,11.5A3.561,3.561,0,1,1,13.5,15.059,3.609,3.609,0,0,1,9.936,11.5M13.5,22.181l4.749,1.187V19.712A8.951,8.951,0,0,1,13.5,20.994a8.951,8.951,0,0,1-4.749-1.282v3.656M13.5,4.374A6.862,6.862,0,0,0,8.464,6.44,6.862,6.862,0,0,0,6.374,11.5a6.862,6.862,0,0,0,2.089,5.022,6.862,6.862,0,0,0,5.033,2.1,6.862,6.862,0,0,0,5.033-2.1A6.862,6.862,0,0,0,20.62,11.5,6.862,6.862,0,0,0,18.531,6.44,6.862,6.862,0,0,0,13.5,4.374m9.5,7.123a9.544,9.544,0,0,1-.677,3.324,9.307,9.307,0,0,1-1.7,2.944V26.93L13.5,24.556,6.374,26.93V17.765A9.378,9.378,0,0,1,4,11.5,9.117,9.117,0,0,1,6.766,4.8,9.176,9.176,0,0,1,13.5,2a9.176,9.176,0,0,1,6.731,2.8,9.117,9.117,0,0,1,2.766,6.7Z" transform="translate(0.749 -0.811)" fill="#0089d0"/>
    </g>
  </g>
</svg>
