<svg xmlns="http://www.w3.org/2000/svg" width="15.641" height="16.293" viewBox="0 0 15.641 16.293">
  <path id="Icon_material-add-shopping-cart" data-name="Icon material-add-shopping-cart" d="M9.259,7.707H10.81V5.379h2.328V3.828H10.81V1.5H9.259V3.828H6.931V5.379H9.259Zm-3.1,6.983a1.552,1.552,0,1,0,1.552,1.552A1.55,1.55,0,0,0,6.155,14.69Zm7.759,0a1.552,1.552,0,1,0,1.552,1.552A1.55,1.55,0,0,0,13.914,14.69ZM6.287,12.168l.023-.093.7-1.265h5.78a1.544,1.544,0,0,0,1.358-.8l2.995-5.439-1.35-.745h-.008L14.93,5.379,12.789,9.259H7.342l-.1-.209L5.5,5.379,4.766,3.828,4.037,2.276H1.5V3.828H3.052L5.845,9.716,4.8,11.617a1.5,1.5,0,0,0-.194.745,1.556,1.556,0,0,0,1.552,1.552h9.31V12.362H6.481A.2.2,0,0,1,6.287,12.168Z" transform="translate(-1.5 -1.5)" fill="#fff"/>
</svg>
