<svg xmlns="http://www.w3.org/2000/svg" width="16" height="14.857" viewBox="0 0 16 14.857">
  <path id="Icon_ionic-ios-star" data-name="Icon ionic-ios-star" d="M17.643,8.518H12.389l-1.6-4.764a.579.579,0,0,0-1.086,0l-1.6,4.764H2.821a.573.573,0,0,0-.571.571.42.42,0,0,0,.011.1.549.549,0,0,0,.239.4l4.318,3.043L5.161,17.45a.573.573,0,0,0,.2.643.553.553,0,0,0,.321.139.7.7,0,0,0,.357-.129l4.214-3,4.214,3a.669.669,0,0,0,.357.129.513.513,0,0,0,.318-.139.566.566,0,0,0,.2-.643l-1.657-4.818,4.282-3.071.1-.089a.546.546,0,0,0-.421-.954Z" transform="translate(-2.25 -3.375)" fill="#fed804"/>
</svg>
