<svg xmlns="http://www.w3.org/2000/svg" width="13.492" height="12.528" viewBox="0 0 13.492 12.528">
  <path id="Icon_ionic-ios-star" data-name="Icon ionic-ios-star" d="M15.23,7.712H10.8L9.454,3.694a.488.488,0,0,0-.916,0L7.192,7.712H2.732a.483.483,0,0,0-.482.482.354.354,0,0,0,.009.081.463.463,0,0,0,.2.34L6.1,11.181,4.7,15.244a.483.483,0,0,0,.166.542.466.466,0,0,0,.271.117.59.59,0,0,0,.3-.108L9,13.262,12.55,15.8a.564.564,0,0,0,.3.108.433.433,0,0,0,.268-.117.477.477,0,0,0,.166-.542l-1.4-4.063L15.5,8.591l.087-.075a.461.461,0,0,0-.355-.8Z" transform="translate(-2.25 -3.375)" fill="#fff"/>
</svg>
